# xmcd
#
# Track frame offsets:
#	150
#	17745
#	29875
#	50440
#	69945
#	82200
#	102270
#	121350
#	136825
#	151387
#	164950
#	186535
#	198700
#	217930
#	236462
#	254545
#	269655
#	289075
#
# Disc length: 4093
#
# Revision: 2
# Processed by: cddbd v1.5.1PL0 Copyright (c) Steve Scherf et al.
# Submitted via: audiograbber 1.80.04
# Normalized: r1:DSETVAR1
#
DISCID=1c0ffb12
DTITLE=Various Artist - Southern Songs
DYEAR=1993
DGENRE=
TTITLE0=Michael Bolton - Sittin' on the dock of the bay
TTITLE1=Aretha Franklin - A natural woman
TTITLE2=Garry More - Story of the blues
TTITLE3=Lavine Hudson - Turned Away
TTITLE4=B.B. King - Aint't nobody's Bizness
TTITLE5=Patty Smyth - Sometimes love just aint't enough
TTITLE6=Marc Cohn - Perfect Love
TTITLE7=Donny Hathaway - You've got a friend
TTITLE8=The Commitmans - Do right woman do right man
TTITLE9=john Lee Hooker - One Bourbon, One Scotch, One Beer
TTITLE10=Sanne - The Fever
TTITLE11=Tom Petty - Breakdown
TTITLE12=Lynyrd Skynyrd - All I can do is write about you
TTITLE13=Glenn Frey - Strange weather
TTITLE14=Ashley Cleveland - Tenative Man
TTITLE15=Big Daddy - Money for nothing
TTITLE16=Mink De Ville - Italian Shoes
TTITLE17=Alabama - Lady down on love
EXTD=NRW Lokalradios Präsentieren
EXTT0=
EXTT1=
EXTT2=
EXTT3=
EXTT4=
EXTT5=
EXTT6=
EXTT7=
EXTT8=
EXTT9=
EXTT10=
EXTT11=
EXTT12=
EXTT13=
EXTT14=
EXTT15=
EXTT16=
EXTT17=
PLAYORDER=
